<svg width="14" height="12" viewBox="0 0 14 12" fill="none" xmlns="http://www.w3.org/2000/svg">
<path fill-rule="evenodd" clip-rule="evenodd" d="M0 1C0 0.447715 0.447715 0 1 0H13C13.5523 0 14 0.447715 14 1C14 1.55228 13.5523 2 13 2H1C0.447715 2 0 1.55228 0 1ZM3 6C3 5.44772 3.44772 5 4 5H13C13.5523 5 14 5.44772 14 6C14 6.55228 13.5523 7 13 7H4C3.44772 7 3 6.55228 3 6ZM7 10C6.44772 10 6 10.4477 6 11C6 11.5523 6.44772 12 7 12H13C13.5523 12 14 11.5523 14 11C14 10.4477 13.5523 10 13 10H7Z" fill="#171F46"/>
</svg>
